<svg width="520" height="284" viewBox="0 0 520 284" fill="none" xmlns="http://www.w3.org/2000/svg">
<path d="M131.2 111.8C130.533 108.733 128.867 106.067 126.2 103.8C123.667 101.4 120.6 100.2 117 100.2C115.933 100.2 114.667 100.467 113.2 101C111.867 101.533 110.467 102.267 109 103.2C107.667 104.133 106.467 105.333 105.4 106.8C104.333 108.133 103.6 109.667 103.2 111.4C104.667 115.933 105.933 120.533 107 125.2C108.067 129.867 108.6 135.6 108.6 142.4C108.6 145.733 108.133 148.933 107.2 152C106.267 155.067 105 157.8 103.4 160.2C101.8 162.6 100 164.533 98 166C96 167.333 93.9333 168 91.8 168C89.9333 168 88.1333 167.4 86.4 166.2C84.6667 164.867 83.0667 163.2 81.6 161.2C80.2667 159.2 79.2 156.933 78.4 154.4C77.6 151.867 77.2 149.4 77.2 147C77.2 146.6 77.2 146.267 77.2 146C77.3333 145.6 77.4 145.267 77.4 145C78.0667 140.2 78.8 136.267 79.6 133.2C80.5333 130 81.4667 127.333 82.4 125.2C83.4667 122.933 84.5333 120.933 85.6 119.2C86.8 117.467 88 115.6 89.2 113.6C90.2667 112.133 90.8 110.533 90.8 108.8C90.8 106.4 89.8 104.267 87.8 102.4C85.9333 100.4 83.5333 99.4 80.6 99.4C75.2667 99.4 71.3333 101.533 68.8 105.8C66.2667 109.933 64.0667 116.4 62.2 125.2C61 127.333 59.4667 129.067 57.6 130.4C55.8667 131.6 54 132.2 52 132.2C50.2667 132.2 48.9333 131.733 48 130.8C47.0667 129.867 46.6 128.267 46.6 126C46.6 122.133 47.2667 118.6 48.6 115.4C49.9333 112.2 51.6 109.333 53.6 106.8C55.6 104.267 57.6667 102.067 59.8 100.2C62.0667 98.3333 64 96.8 65.6 95.6C71.7333 91.3333 77.5333 89.2 83 89.2C87.1333 89.2 90.4 90.2667 92.8 92.4C95.3333 94.5333 96.6 97.2667 96.6 100.6V102.2C98.4667 98.3333 101.4 95.2 105.4 92.8C109.533 90.4 114 89.2 118.8 89.2C120.933 89.2 123.2 89.6667 125.6 90.6C128 91.4 130.333 92.5333 132.6 94C134.867 95.4667 136.867 97.2 138.6 99.2C140.467 101.2 141.867 103.267 142.8 105.4C145.067 111 146.533 116 147.2 120.4C147.867 124.8 148.2 129.467 148.2 134.4V145C148.2 151.8 148.2 158.4 148.2 164.8C148.333 171.2 148.4 177.4 148.4 183.4C148.4 193.4 148.2 202.867 147.8 211.8C147.133 211.933 146.467 212 145.8 212H137C136.067 212 135.4 211.867 135 211.6C134.733 211.2 134.6 210.267 134.6 208.8C134.6 206.933 134.6 205.333 134.6 204C134.733 202.667 134.8 201.2 134.8 199.6H132.8C124.133 199.6 115.4 201.133 106.6 204.2C97.9333 207.267 89.3333 211.267 80.8 216.2C72.4 221.133 64.2667 226.733 56.4 233C48.5333 239.267 41.2667 245.467 34.6 251.6C27.8 257.867 21.6667 263.8 16.2 269.4C10.7333 275.133 6.2 279.933 2.6 283.8L-2.6226e-06 279.8C2.53333 275.933 6.13333 271 10.8 265C15.3333 259.133 20.8 252.867 27.2 246.2C33.6 239.533 40.7333 232.733 48.6 225.8C56.4667 219 64.9333 212.733 74 207C83.0667 201.267 92.6 196.4 102.6 192.4C112.6 188.267 122.933 185.667 133.6 184.6C134.133 180.333 134.467 175.867 134.6 171.2C134.867 166.533 135 161.867 135 157.2C135 148.8 134.667 140.667 134 132.8C133.333 124.8 132.4 117.8 131.2 111.8ZM248.797 99.6C248.53 100.267 247.664 101.667 246.197 103.8C244.864 105.933 243.197 108.667 241.197 112C240.264 110.267 238.664 108.667 236.397 107.2C234.264 105.733 232.064 105 229.797 105C228.464 105 227.13 105.333 225.797 106C224.597 106.667 223.464 107.867 222.397 109.6C221.464 111.2 220.664 113.533 219.997 116.6C219.464 119.533 219.197 123.333 219.197 128C219.197 128.933 219.197 129.867 219.197 130.8C219.33 131.6 219.397 132.533 219.397 133.6V180.2L218.997 211.6C217.93 211.867 217.197 212 216.797 212H214.997C213.93 212 212.997 211.933 212.197 211.8C211.397 211.667 210.33 211.6 208.997 211.6C208.597 211.6 208.13 211.667 207.597 211.8C207.197 211.8 206.664 211.8 205.997 211.8C205.997 203.267 205.93 195.2 205.797 187.6C205.797 179.867 205.33 173.133 204.397 167.4C203.464 161.533 201.997 156.933 199.997 153.6C197.997 150.267 195.064 148.6 191.197 148.6C188.93 148.6 186.864 149.467 184.997 151.2C183.13 152.933 181.864 155.467 181.197 158.8C183.464 161.067 185.13 164.267 186.197 168.4C187.264 172.533 187.797 176.667 187.797 180.8C187.797 183.2 187.597 185.667 187.197 188.2C186.93 190.733 186.264 193.133 185.197 195.4C184.264 197.533 182.864 199.333 180.997 200.8C179.13 202.133 176.664 202.8 173.597 202.8C171.197 202.8 169.197 202.067 167.597 200.6C166.13 199 164.93 197.067 163.997 194.8C163.197 192.533 162.664 190.2 162.397 187.8C162.13 185.267 161.997 183.067 161.997 181.2C161.997 174.8 162.464 168.733 163.397 163C164.33 157.267 165.797 152.267 167.797 148C169.797 143.733 172.464 140.333 175.797 137.8C179.13 135.267 183.197 134 187.997 134C191.73 134 195.33 135.133 198.797 137.4C202.264 139.667 204.597 143.6 205.797 149.2V147.6C205.797 146.267 205.664 144.467 205.397 142.2C205.264 139.8 205.064 137.333 204.797 134.8C204.664 132.267 204.464 129.867 204.197 127.6C203.93 125.2 203.73 123.4 203.597 122.2C203.064 119.933 201.93 117.667 200.197 115.4C198.464 113 196.264 110.867 193.597 109C190.93 107.133 187.864 105.6 184.397 104.4C180.93 103.2 177.264 102.6 173.397 102.6C170.73 102.6 167.997 103 165.197 103.8C162.397 104.6 159.797 105.6 157.397 106.8C154.864 108 152.664 109.267 150.797 110.6C148.93 111.933 147.664 113.133 146.997 114.2C144.864 110.733 143.13 107.667 141.797 105C140.33 102.2 139.464 100.533 139.197 100C140.397 98.8 142.13 97.5333 144.397 96.2C146.664 94.8667 149.264 93.7333 152.197 92.8C154.997 91.7333 158.064 90.8667 161.397 90.2C164.73 89.5333 168.064 89.2 171.397 89.2C175.264 89.2 179.064 89.6667 182.797 90.6C186.664 91.5333 190.197 92.7333 193.397 94.2C196.73 95.6667 199.664 97.4667 202.197 99.6C204.73 101.6 206.597 103.667 207.797 105.8C210.33 100.2 213.797 96.2667 218.197 94C222.597 91.7333 227.13 90.6 231.797 90.6C236.197 90.6 239.73 91.7333 242.397 94C245.064 96.1333 247.197 98 248.797 99.6ZM281.625 111.4C280.958 109 279.492 107.067 277.225 105.6C274.958 104.133 272.625 103.4 270.225 103.4C267.292 103.4 265.025 104.733 263.425 107.4C261.825 110.067 260.625 113.2 259.825 116.8C259.025 120.4 258.558 124.067 258.425 127.8C258.292 131.533 258.225 134.4 258.225 136.4C258.225 143.333 258.358 151.4 258.625 160.6C258.892 169.667 259.025 179 259.025 188.6V201.2C259.025 203.333 258.958 205.4 258.825 207.4C258.825 209.267 258.758 211.133 258.625 213C257.958 212.733 257.358 212.533 256.825 212.4C256.292 212.4 255.758 212.4 255.225 212.4C254.558 212.4 253.892 212.4 253.225 212.4C252.558 212.533 251.692 212.6 250.625 212.6C249.958 212.6 249.292 212.533 248.625 212.4C247.958 212.4 247.158 212.333 246.225 212.2C245.825 201.267 245.625 190.8 245.625 180.8C245.625 174.4 245.692 168.2 245.825 162.2C245.958 156.2 246.025 149.8 246.025 143C246.025 139.667 245.892 135.6 245.625 130.8C245.492 126 245.092 121.467 244.425 117.2C243.758 112.933 242.692 109.267 241.225 106.2C239.758 103.133 237.825 101.6 235.425 101.6C234.092 101.6 232.692 101.933 231.225 102.6C229.758 103.133 228.358 103.933 227.025 105C225.692 105.933 224.492 107 223.425 108.2C222.225 109.267 221.358 110.4 220.825 111.6C218.825 108.267 217.158 105.6 215.825 103.6C214.492 101.6 213.558 100.267 213.025 99.6C215.692 97.0667 218.558 94.9333 221.625 93.2C224.558 91.3333 227.958 90.4 231.825 90.4C233.825 90.4 235.892 90.6667 238.025 91.2C240.292 91.7333 242.358 92.6 244.225 93.8C246.092 94.8667 247.692 96.2667 249.025 98C250.358 99.6 251.225 101.6 251.625 104C253.358 99.0667 256.025 95.6 259.625 93.6C263.225 91.6 267.358 90.6 272.025 90.6C275.892 90.6 279.025 91.4667 281.425 93.2C283.958 94.9333 286.492 97.0667 289.025 99.6C288.758 100.4 287.958 101.733 286.625 103.6C285.425 105.467 283.758 108.067 281.625 111.4ZM402.702 99.4C402.435 99.8 401.568 101 400.102 103C398.768 104.867 397.035 107.533 394.902 111C393.835 109 392.235 107.467 390.102 106.4C388.102 105.2 385.968 104.6 383.702 104.6C382.102 104.6 380.435 105 378.702 105.8C377.102 106.467 375.635 107.333 374.302 108.4C373.102 109.467 372.102 110.733 371.302 112.2C370.502 113.533 370.102 114.867 370.102 116.2C370.102 116.733 370.368 118.067 370.902 120.2C371.435 122.333 372.102 125 372.902 128.2C373.835 131.267 374.768 134.6 375.702 138.2C376.635 141.8 377.502 145.267 378.302 148.6C379.235 151.933 379.968 154.933 380.502 157.6C381.035 160.267 381.302 162.133 381.302 163.2C379.568 164.4 377.768 165.667 375.902 167C374.035 168.333 372.302 169.933 370.702 171.8C369.235 173.533 367.968 175.6 366.902 178C365.968 180.4 365.502 183.267 365.502 186.6C365.502 194.733 367.435 201.333 371.302 206.4C375.302 211.333 380.368 213.8 386.502 213.8H388.702C389.235 213.8 390.035 213.667 391.102 213.4C389.235 216.067 388.035 217.733 387.502 218.4C386.968 219.2 386.368 219.6 385.702 219.6C382.235 219.6 378.502 218.933 374.502 217.6C370.635 216.267 366.968 214.2 363.502 211.4C360.168 208.467 357.368 204.733 355.102 200.2C352.835 195.667 351.702 190.267 351.702 184C351.702 180.933 352.102 178.133 352.902 175.6C353.702 173.067 354.768 170.733 356.102 168.6C357.435 166.333 358.835 164.333 360.302 162.6C361.902 160.733 363.435 159 364.902 157.4C364.768 155.667 364.168 152.933 363.102 149.2C362.168 145.333 361.035 141.2 359.702 136.8C358.502 132.4 357.302 128.067 356.102 123.8C354.902 119.4 353.968 115.8 353.302 113C352.768 112.467 351.835 111.8 350.502 111C349.302 110.067 347.835 109.2 346.102 108.4C344.502 107.6 342.702 106.933 340.702 106.4C338.835 105.867 336.968 105.6 335.102 105.6C329.768 105.6 325.368 107.2 321.902 110.4C318.435 113.6 315.635 117.267 313.502 121.4C311.502 125.533 310.102 129.6 309.302 133.6C308.502 137.467 308.102 140.133 308.102 141.6C308.102 141.867 308.168 142.867 308.302 144.6C308.435 146.333 308.635 148.2 308.902 150.2C309.302 152.067 309.768 153.8 310.302 155.4C310.968 157 311.835 157.8 312.902 157.8C314.368 157.8 316.035 156.533 317.902 154C319.768 151.467 321.502 148.533 323.102 145.2C324.835 141.867 326.368 138.6 327.702 135.4C329.035 132.067 329.902 129.667 330.302 128.2C332.835 129.667 335.902 131.4 339.502 133.4C343.102 135.267 345.968 137.133 348.102 139C348.768 140.6 349.102 143.467 349.102 147.6C349.102 149.467 349.035 151.6 348.902 154C348.902 156.4 348.902 159.133 348.902 162.2C348.902 170.2 347.768 177.267 345.502 183.4C343.368 189.4 340.435 194.4 336.702 198.4C332.968 202.4 328.702 205.467 323.902 207.6C319.235 209.6 314.368 210.6 309.302 210.6C304.902 210.6 300.968 209.6 297.502 207.6C294.168 205.6 291.168 203.067 288.502 200C285.968 196.8 283.768 193.267 281.902 189.4C280.035 185.533 278.502 181.733 277.302 178C276.102 174.267 275.168 170.8 274.502 167.6C273.968 164.267 273.635 161.667 273.502 159.8C273.368 158.733 273.235 157.667 273.102 156.6C273.102 155.533 273.102 154.4 273.102 153.2C273.102 150 273.302 146.533 273.702 142.8C274.102 138.933 274.635 135.267 275.302 131.8C275.968 128.333 276.768 125.2 277.702 122.4C278.635 119.467 279.635 117.267 280.702 115.8C282.035 116.733 282.835 117.4 283.102 117.8C283.502 118.2 284.235 118.933 285.302 120C285.035 121.2 284.368 123.933 283.302 128.2C282.235 132.467 281.702 137.8 281.702 144.2C281.702 147.4 281.902 150.6 282.302 153.8C282.702 157 283.435 160.333 284.502 163.8C285.168 166.2 286.168 169.2 287.502 172.8C288.968 176.267 290.768 179.733 292.902 183.2C295.035 186.533 297.568 189.4 300.502 191.8C303.435 194.2 306.702 195.4 310.302 195.4C313.902 195.4 317.235 194.4 320.302 192.4C323.502 190.267 326.302 187.533 328.702 184.2C331.102 180.867 332.968 177.067 334.302 172.8C335.768 168.533 336.502 164.2 336.502 159.8C336.102 158.6 335.435 157.933 334.502 157.8C333.702 157.533 332.768 156.667 331.702 155.2C330.635 157.467 329.502 159.733 328.302 162C327.102 164.133 325.768 166.067 324.302 167.8C322.835 169.533 321.235 170.933 319.502 172C317.902 173.067 316.168 173.6 314.302 173.6C310.968 173.6 308.102 172.533 305.702 170.4C303.435 168.133 301.502 165.533 299.902 162.6C298.435 159.533 297.368 156.467 296.702 153.4C296.035 150.333 295.702 147.933 295.702 146.2C295.702 139.533 295.968 134.4 296.502 130.8C297.168 127.067 298.302 123.8 299.902 121C299.635 116.333 298.502 112.667 296.502 110C294.502 107.333 292.235 105.4 289.702 104.2C287.168 102.867 284.702 102.067 282.302 101.8C280.035 101.4 278.502 101.2 277.702 101.2C273.702 101.2 269.968 102.267 266.502 104.4C262.902 106.4 260.435 108.6 259.102 111C257.102 107.667 255.435 105.067 254.102 103.2C252.635 101.333 251.768 100.133 251.502 99.6C254.568 96.6667 257.968 94.2667 261.702 92.4C265.302 90.4 270.102 89.4 276.102 89.4C282.235 89.4 288.435 90.6 294.702 93C300.968 95.2667 305.968 98.8 309.702 103.6C311.568 100.133 314.768 97.2 319.302 94.8C323.835 92.2667 328.635 91 333.702 91C336.102 91 338.502 91.3333 340.902 92C343.302 92.5333 345.502 93.2 347.502 94C349.635 94.8 351.502 95.6667 353.102 96.6C354.702 97.5333 355.835 98.3333 356.502 99C357.435 97.5333 358.768 96.2667 360.502 95.2C362.368 94 364.368 93.0667 366.502 92.4C368.768 91.6 371.168 91 373.702 90.6C376.235 90.2 378.702 90 381.102 90C383.235 90 385.435 90.3333 387.702 91C390.102 91.6667 392.302 92.4667 394.302 93.4C396.302 94.3333 398.035 95.3333 399.502 96.4C401.102 97.4667 402.168 98.4667 402.702 99.4ZM480.108 99.6C479.841 100.133 478.974 101.4 477.508 103.4C476.174 105.267 474.508 107.8 472.508 111C471.441 109.133 469.774 107.533 467.508 106.2C465.374 104.733 463.174 104 460.908 104C459.841 104 458.708 104.2 457.508 104.6C456.441 104.867 455.374 105.6 454.308 106.8C453.241 107.867 452.308 109.467 451.508 111.6C450.708 113.6 450.108 116.267 449.708 119.6C449.841 122.133 449.908 124.533 449.908 126.8V145.2C449.908 151.6 449.841 157.2 449.708 162C449.708 166.667 449.708 170.867 449.708 174.6C449.708 177.933 449.774 180.667 449.908 182.8C450.174 184.8 450.374 186.733 450.508 188.6C450.774 190.467 450.974 192.6 451.108 195C451.374 197.267 451.508 200.4 451.508 204.4C451.508 207.467 450.774 209.8 449.308 211.4C447.974 213 446.308 213.8 444.308 213.8C442.041 213.8 439.774 212.867 437.508 211C435.374 209.133 433.574 206.267 432.108 202.4C429.574 198.667 426.774 195.533 423.708 193C420.641 190.467 417.508 188.267 414.308 186.4C411.241 184.4 408.174 182.6 405.108 181C402.041 179.4 399.308 177.733 396.908 176C394.641 174.133 392.708 172.133 391.108 170C389.641 167.733 388.841 164.933 388.708 161.6C388.974 159.867 390.108 157.8 392.108 155.4C394.241 152.867 396.774 150.267 399.708 147.6C402.774 144.8 405.974 141.933 409.308 139C412.774 135.933 415.908 132.933 418.708 130C421.641 127.067 424.041 124.267 425.908 121.6C427.908 118.933 428.908 116.533 428.908 114.4V114C425.708 110.4 421.908 107.6 417.508 105.6C413.108 103.6 408.574 102.6 403.908 102.6C401.241 102.6 398.508 103.067 395.708 104C392.908 104.8 390.308 105.8 387.908 107C385.508 108.2 383.374 109.467 381.508 110.8C379.641 112.133 378.374 113.267 377.708 114.2C375.574 110.733 373.841 107.667 372.508 105C371.041 102.2 370.174 100.533 369.908 100C371.108 98.8 372.841 97.5333 375.108 96.2C377.374 94.8667 379.974 93.7333 382.908 92.8C385.708 91.7333 388.774 90.8667 392.108 90.2C395.441 89.5333 398.774 89.2 402.108 89.2C405.974 89.2 409.774 89.6667 413.508 90.6C417.374 91.5333 420.908 92.7333 424.108 94.2C427.441 95.6667 430.374 97.4667 432.908 99.6C435.441 101.6 437.308 103.667 438.508 105.8C440.108 101.933 443.041 98.4667 447.308 95.4C451.708 92.2 456.974 90.6 463.108 90.6C467.374 90.6 470.841 91.6667 473.508 93.8C476.174 95.9333 478.374 97.8667 480.108 99.6ZM408.908 155.8C406.641 157.667 404.508 159.6 402.508 161.6C405.574 162.533 408.708 164.067 411.908 166.2C415.108 168.2 418.174 170.533 421.108 173.2C424.174 175.733 427.041 178.333 429.708 181C432.374 183.667 434.708 186.067 436.708 188.2L436.508 172.4C433.441 170.8 430.441 169.133 427.508 167.4C424.708 165.667 422.108 164.067 419.708 162.6C417.308 161 415.174 159.6 413.308 158.4C411.441 157.2 409.974 156.333 408.908 155.8ZM436.308 154.4L436.108 130C434.641 132.533 432.841 134.933 430.708 137.2C428.708 139.333 426.574 141.333 424.308 143.2L427.708 146.2C428.641 146.867 429.441 147.6 430.108 148.4C430.908 149.2 431.641 149.933 432.308 150.6L436.308 154.4ZM494.494 106.6C491.96 111.933 490.36 117 489.694 121.8C489.16 126.6 488.894 131.467 488.894 136.4C488.894 143.333 489.027 151.4 489.294 160.6C489.56 169.667 489.694 179 489.694 188.6V201.2C489.694 203.333 489.627 205.4 489.494 207.4C489.494 209.267 489.427 211.133 489.294 213C488.36 212.467 487.294 212.2 486.094 212.2C485.427 212.2 484.627 212.267 483.694 212.4C482.894 212.533 481.894 212.6 480.694 212.6H478.894C477.96 212.6 477.294 212.533 476.894 212.4C476.627 205.867 476.427 199.6 476.294 193.6C476.294 187.6 476.294 181.533 476.294 175.4V159.6C476.294 156.933 476.36 154.267 476.494 151.6C476.627 148.8 476.694 145.933 476.694 143C476.694 139.667 476.56 135.667 476.294 131C476.16 126.333 475.694 121.867 474.894 117.6C474.227 113.2 473.16 109.533 471.694 106.6C470.36 103.533 468.494 102 466.094 102C464.76 102 463.36 102.333 461.894 103C460.427 103.533 459.027 104.333 457.694 105.4C456.36 106.333 455.16 107.4 454.094 108.6C452.894 109.667 452.027 110.8 451.494 112C449.227 108.8 447.494 106.2 446.294 104.2C444.96 102.2 444.16 100.867 443.894 100.2C446.56 97.6667 449.427 95.6 452.494 94C455.427 92.2667 458.827 91.4 462.694 91.4C464.027 91.4 465.627 91.4667 467.494 91.6C469.494 91.6 471.16 91.8667 472.494 92.4C466.894 87.6 462.027 83.1333 457.894 79C453.627 74.7333 450.094 70.5333 447.294 66.4C444.494 62.1333 442.427 57.6667 441.094 53C439.627 48.3333 438.894 43.1333 438.894 37.4C438.894 32.7333 439.56 28.2 440.894 23.8C442.227 19.4 444.027 15.4667 446.294 12C448.56 8.53333 451.227 5.8 454.294 3.8C457.227 1.66666 460.427 0.599992 463.894 0.599992C467.894 0.599992 471.36 1.66666 474.294 3.8C477.36 5.8 479.96 8.53333 482.094 12C484.227 15.3333 485.96 19.2667 487.294 23.8C488.627 28.2 489.627 32.7333 490.294 37.4C491.094 42.0667 491.627 46.7333 491.894 51.4C492.16 56.0667 492.294 60.3333 492.294 64.2C492.294 68.4667 492.094 72.9333 491.694 77.6C491.427 82.1333 490.894 87.4 490.094 93.4C491.427 92.4667 492.96 91.8667 494.694 91.6C496.56 91.3333 498.56 91.2 500.694 91.2C503.36 91.2 505.627 91.4667 507.494 92C509.36 92.4 510.96 93 512.294 93.8C513.76 94.6 515.094 95.6 516.294 96.8C517.494 97.8667 518.694 99 519.894 100.2L512.494 112C511.827 109.467 510.294 107.467 507.894 106C505.627 104.533 503.294 103.8 500.894 103.8C499.694 103.8 498.494 104 497.294 104.4C496.227 104.8 495.294 105.533 494.494 106.6ZM481.894 85.4C482.027 81.1333 482.094 77 482.094 73C482.227 68.8667 482.294 64.7333 482.294 60.6C482.294 56.0667 482.094 51 481.694 45.4C481.427 39.6667 480.694 34.4 479.494 29.6C478.294 24.6667 476.427 20.5333 473.894 17.2C471.494 13.8667 468.227 12.2 464.094 12.2C461.827 12.2 459.827 13.0667 458.094 14.8C456.227 16.4 454.627 18.5333 453.294 21.2C451.827 23.7333 450.76 26.6667 450.094 30C449.294 33.2 448.894 36.4 448.894 39.6C448.894 43.4667 449.76 47.4 451.494 51.4C453.094 55.4 455.427 59.4 458.494 63.4C461.427 67.4 464.894 71.2667 468.894 75C472.894 78.7333 477.227 82.2 481.894 85.4Z" fill="#FFBB0C"/>
</svg>
